<svg xmlns="http://www.w3.org/2000/svg" viewBox="0 0 512 640" x="0px" y="0px"><title>game ui anvil forge</title><path d="M413.16,71.87c-5.15,23.91-15,57.61-31.64,75.29-3.47,3.69-3.09,10.29.73,13.46a101.18,101.18,0,0,1,33.21,52.24c1.19,4.56,6.53,4.79,8,.32C428.56,197,438,174,452.9,162c4.13-3.33,4.51-10.41.88-14.48-10.94-12.29-28.86-37.5-34.31-75.3C418.88,68.11,414,67.86,413.16,71.87Z"/><rect x="127.96" y="72.7" width="190.33" height="113.64" rx="18.02" transform="translate(156.94 -119.84) rotate(45)"/><path d="M257,287.27H153.31A8.21,8.21,0,0,0,146.47,300c11.72,17.83,41.55,48.8,109.76,55.58a7.41,7.41,0,0,0,8.17-7.35V294.66A7.39,7.39,0,0,0,257,287.27Z"/><rect x="84.24" y="160.66" width="43.6" height="171.91" rx="8.45" transform="translate(205.44 -2.75) rotate(45)"/><path d="M284.25,371.13V291.78a7.06,7.06,0,0,1,7.05-7.06h0a9.94,9.94,0,0,0,9.94-9.94v-.85a7.06,7.06,0,0,1,7.06-7.06H471.6a7.06,7.06,0,0,1,7,7.06v40.39a7,7,0,0,1-3.67,6.2c-8.74,4.76-30.72,19.52-39.61,51.17a8.89,8.89,0,0,1-8.58,6.49H291.3A7.05,7.05,0,0,1,284.25,371.13Z"/><path d="M455.76,460.56c-23.06-14.09-29.14-41.27-30.61-58a4.9,4.9,0,0,0-4.87-4.49H311a4.89,4.89,0,0,0-4.86,4.49c-1.48,16.77-7.56,44-30.62,58a9.86,9.86,0,0,0-4.76,8.4v6.32a7.2,7.2,0,0,0,7.2,7.2h43.81a7.17,7.17,0,0,0,6.56-4.23c3.21-7.2,12.59-21,37.32-21s34.11,13.84,37.31,21a7.18,7.18,0,0,0,6.56,4.23h43.82a7.19,7.19,0,0,0,7.19-7.2V469A9.84,9.84,0,0,0,455.76,460.56Z"/><text x="0" y="527" fill="#000000" font-size="5px" font-weight="bold" font-family="'Helvetica Neue', Helvetica, Arial-Unicode, Arial, Sans-serif">Created by Maxicons</text><text x="0" y="532" fill="#000000" font-size="5px" font-weight="bold" font-family="'Helvetica Neue', Helvetica, Arial-Unicode, Arial, Sans-serif">from the Noun Project</text></svg>