<svg xmlns:dc="http://purl.org/dc/elements/1.1/" xmlns:cc="http://creativecommons.org/ns#" xmlns:rdf="http://www.w3.org/1999/02/22-rdf-syntax-ns#" xmlns:svg="http://www.w3.org/2000/svg" xmlns="http://www.w3.org/2000/svg" xmlns:sodipodi="http://sodipodi.sourceforge.net/DTD/sodipodi-0.dtd" xmlns:inkscape="http://www.inkscape.org/namespaces/inkscape" version="1.1" x="0px" y="0px" viewBox="0 0 100 125"><g transform="translate(0,-952.36218)"><path style="text-indent:0;text-transform:none;direction:ltr;block-progression:tb;baseline-shift:baseline;color:#000000;enable-background:accumulate;" d="M 18.8125,27 C 18.354098,27.087467 17.991777,27.5334 18,28 l 0,44 c 5.2e-5,0.523584 0.476416,0.999948 1,1 l 62,0 c 0.523584,-5.2e-5 0.999948,-0.476416 1,-1 l 0,-19 c 0.0075,-0.528313 -0.471635,-1.014242 -1,-1.014242 -0.528365,0 -1.007472,0.485929 -1,1.014242 l 0,18 -60,0 0,-40.625 20.28125,18.90625 -8,8 c -0.364567,0.377086 -0.355177,1.050872 0.01976,1.417654 0.374931,0.366781 1.048762,0.361361 1.417745,-0.0114 2.676382,-2.676381 5.357076,-5.357076 8.03125,-8.03125 l 7.5625,7.0625 c 0.367009,0.347392 1.007991,0.347392 1.375,0 l 7.5625,-7.0625 c 4.674364,4.674377 9.354727,9.354727 14.03125,14.03125 0.368983,0.372765 1.042814,0.378185 1.417745,0.0114 0.374932,-0.366782 0.384322,-1.040568 0.01976,-1.417654 l -14,-14 L 80,30.375 80,47 c -0.0075,0.528313 0.471635,1.014242 1,1.014242 0.528365,0 1.007472,-0.485929 1,-1.014242 l 0,-19 c -5.2e-5,-0.523584 -0.476416,-0.999948 -1,-1 -20.725036,0 -41.476118,0 -62.1875,0 z M 21.5,29 78.5,29 50,55.59375 z m 6.46875,32.96875 c -0.257929,0.01019 -0.510228,0.124867 -0.6875,0.3125 -0.345608,0.3456 -0.654428,0.6544 -1,1 -0.364567,0.377086 -0.355177,1.050872 0.01975,1.417654 0.374931,0.366781 1.048762,0.361361 1.417745,-0.0114 0.345528,-0.3456 0.654484,-0.6545 1,-1 0.583613,-0.562268 0.05912,-1.764222 -0.75,-1.71875 z" transform="translate(0,952.36218)" fill="#000000" fill-opacity="1" fill-rule="nonzero" stroke="none" marker="none" visibility="visible" display="inline" overflow="visible"/></g><text x="0" y="115" fill="#000000" font-size="5px" font-weight="bold" font-family="'Helvetica Neue', Helvetica, Arial-Unicode, Arial, Sans-serif">Created by rivda</text><text x="0" y="120" fill="#000000" font-size="5px" font-weight="bold" font-family="'Helvetica Neue', Helvetica, Arial-Unicode, Arial, Sans-serif">from the Noun Project</text></svg>