<svg xmlns="http://www.w3.org/2000/svg" data-name="Слой 1" viewBox="0 0 128 160" x="0px" y="0px"><title>Spider Web, Spooky, Halloween, Insect, Network, Spider, web, </title><path d="M120.95,94.46l-2.07-1.19-3-57,5-2.91a2,2,0,1,0-2-3.46l-5.13,3L66,7V2a2,2,0,0,0-4,0V7L15.35,33.54l-6.3-3.64a2,2,0,1,0-2,3.46l6.44,3.71,6.35,50L7.05,94.46a2,2,0,1,0,2,3.46l13.13-7.57L62,105.14V126a2,2,0,0,0,4,.16l51-29.4,2,1.16a2,2,0,1,0,2-3.46Zm-6.2-3.58-13.41-7.73-2.47-37L112,38.52ZM55.25,66.66,53.8,60.34,60,63.92ZM66,52.4l8.67,3.06-8.67,5Zm-4,8.06-7.15-4.13,7.15-4Zm6,3.46,8.73-5,1,10.66Zm8.32,9.42L66,80.2V67.38ZM79.2,52.84a1.94,1.94,0,0,0-.2-.1L66,48.16V32.71L92.48,45.18ZM62,47.69,50.83,54l-12.3-7.1L62,33.06ZM49.07,57.61l2.56,11.14-10.43,6-4-24ZM62,67.38v14l-17-4.2ZM66,85l14.18-9.44L95.34,84.3,66,100.38ZM82,72,80.54,56.68,95,48.33l2.16,32.41Zm27.75-36.78-13,7.53L66,28.29V11.52ZM62,11.6V28.42L34.55,44.62,19.37,35.86Zm-44.16,28,14.9,8.6L37.5,76.9l-13.9,8Zm8.83,48.17L40,80.07,62,85.5v15.38ZM66,121.54v-16.6l33.39-18.3,13.55,7.82Z"/><text x="0" y="143" fill="#000000" font-size="5px" font-weight="bold" font-family="'Helvetica Neue', Helvetica, Arial-Unicode, Arial, Sans-serif">Created by LAFS</text><text x="0" y="148" fill="#000000" font-size="5px" font-weight="bold" font-family="'Helvetica Neue', Helvetica, Arial-Unicode, Arial, Sans-serif">from the Noun Project</text></svg>